<svg width="80" height="80" viewBox="0 0 80 80" fill="none" xmlns="http://www.w3.org/2000/svg">
  <!-- Banana body -->
  <path d="M25 25 Q30 20 45 18 Q60 16 65 25 Q70 35 60 50 Q50 65 40 70 Q30 75 25 65 Q20 55 25 25" fill="#FFD700"/>
  <path d="M27 27 Q32 22 47 20 Q62 18 67 27 Q72 37 62 52 Q52 67 42 72 Q32 77 27 67 Q22 57 27 27" fill="#FFFF00"/>

  <!-- Banana curve -->
  <ellipse cx="45" cy="45" rx="20" ry="25" fill="#FFFACD" opacity="0.8"/>

  <!-- Banana stem -->
  <rect x="38" y="15" width="4" height="8" fill="#32CD32" rx="2"/>
  <circle cx="40" cy="15" r="3" fill="#228B22"/>

  <!-- Banana spots -->
  <ellipse cx="35" cy="35" rx="2" ry="4" fill="#8B4513" opacity="0.6"/>
  <ellipse cx="45" cy="40" rx="2" ry="4" fill="#8B4513" opacity="0.6"/>
  <ellipse cx="50" cy="50" rx="2" ry="4" fill="#8B4513" opacity="0.6"/>
  <ellipse cx="40" cy="55" rx="2" ry="4" fill="#8B4513" opacity="0.6"/>

  <!-- Banana shine -->
  <ellipse cx="35" cy="30" rx="8" ry="5" fill="#FFFFFF" opacity="0.8"/>
  <ellipse cx="45" cy="35" rx="5" ry="3" fill="#FFFFFF" opacity="0.6"/>
</svg>
