<svg width="80" height="80" viewBox="0 0 80 80" fill="none" xmlns="http://www.w3.org/2000/svg">
  <!-- Grape bunch -->
  <circle cx="40" cy="30" r="8" fill="#4B0082"/>
  <circle cx="35" cy="35" r="8" fill="#6A0DAD"/>
  <circle cx="45" cy="35" r="8" fill="#8A2BE2"/>
  <circle cx="30" cy="42" r="8" fill="#4B0082"/>
  <circle cx="40" cy="42" r="8" fill="#6A0DAD"/>
  <circle cx="50" cy="42" r="8" fill="#8A2BE2"/>
  <circle cx="35" cy="48" r="8" fill="#4B0082"/>
  <circle cx="45" cy="48" r="8" fill="#6A0DAD"/>

  <!-- Grape highlights -->
  <ellipse cx="38" cy="28" rx="3" ry="2" fill="#FFFFFF" opacity="0.7"/>
  <ellipse cx="33" cy="33" rx="3" ry="2" fill="#FFFFFF" opacity="0.7"/>
  <ellipse cx="43" cy="33" rx="3" ry="2" fill="#FFFFFF" opacity="0.7"/>
  <ellipse cx="28" cy="40" rx="3" ry="2" fill="#FFFFFF" opacity="0.7"/>
  <ellipse cx="38" cy="40" rx="3" ry="2" fill="#FFFFFF" opacity="0.7"/>
  <ellipse cx="48" cy="40" rx="3" ry="2" fill="#FFFFFF" opacity="0.7"/>
  <ellipse cx="33" cy="46" rx="3" ry="2" fill="#FFFFFF" opacity="0.7"/>
  <ellipse cx="43" cy="46" rx="3" ry="2" fill="#FFFFFF" opacity="0.7"/>

  <!-- Small grape -->
  <circle cx="40" cy="55" r="5" fill="#4B0082"/>
  <ellipse cx="39" cy="54" rx="2" ry="1" fill="#FFFFFF" opacity="0.7"/>
</svg>
